<svg width="50" height="50" viewBox="0 0 50 50" fill="none" xmlns="http://www.w3.org/2000/svg">
<rect x="2" y="2" width="46" height="46" rx="23" fill="#BF64BC" stroke="#F0DCEF" stroke-width="4"/>
<path d="M24.988 28.6113C26.935 28.6113 28.5175 27.028 28.5175 25.081C28.5175 24.0243 28.0503 23.0755 27.313 22.4275C27.0535 22.2002 26.7618 22.0105 26.4445 21.8665C25.9998 21.664 25.5077 21.5507 24.9887 21.5507C24.4697 21.5507 23.977 21.664 23.533 21.8665C23.215 22.012 22.9225 22.2018 22.6645 22.4283C21.9257 23.0763 21.4585 24.025 21.4585 25.0818C21.4585 27.028 23.0425 28.6113 24.988 28.6113ZM25 22.4732C26.4408 22.4732 27.6093 23.641 27.6093 25.0818C27.6093 26.5225 26.4408 27.691 25 27.691C23.5592 27.691 22.3908 26.5233 22.3908 25.0818C22.3908 23.641 23.5592 22.4732 25 22.4732ZM28.9173 22.75H34V30.4585C34 32.4145 32.4145 34 30.4585 34H19.5888C17.6327 34 16 32.4145 16 30.4585V22.75H21.0603C20.6523 23.4348 20.4062 24.2268 20.4062 25.0818C20.4062 27.6123 22.4575 29.6635 24.988 29.6635C27.5185 29.6635 29.5697 27.6123 29.5697 25.0818C29.5705 24.2268 29.3245 23.4348 28.9173 22.75ZM30.4585 16H21.25V19.75H20.5V16H19.75V19.75H19V16.0578C18.7405 16.1005 18.4885 16.165 18.25 16.2603V19.75H17.5V16.6735C16.5985 17.3162 16 18.358 16 19.5415V22H21.6048C22.48 21.0385 23.7033 20.5 24.988 20.5C26.2795 20.5 27.5013 21.0438 28.3713 22H34V19.5415C34 17.5855 32.4145 16 30.4585 16ZM32.5 19.9488C32.5 20.2533 32.2502 20.5 31.9412 20.5H30.058C29.7498 20.5 29.5 20.2533 29.5 19.9488V18.0512C29.5 17.7467 29.7498 17.5 30.058 17.5H31.9412C32.2502 17.5 32.5 17.7467 32.5 18.0512V19.9488Z" fill="white"/>
</svg>
