<svg width="50" height="50" viewBox="0 0 50 50" fill="none" xmlns="http://www.w3.org/2000/svg">
<rect x="2" y="2" width="46" height="46" rx="23" fill="#2F93DC" stroke="#CFE6F0" stroke-width="4"/>
<path fill-rule="evenodd" clip-rule="evenodd" d="M33.6554 27.266C34.4515 28.01 35.2918 28.7099 36.0058 29.5289C36.3212 29.8929 36.6199 30.2684 36.8483 30.6908C37.172 31.2912 36.8788 31.9519 36.3163 31.9878L32.82 31.9863C31.9182 32.0579 31.1988 31.7104 30.5939 31.1203C30.1098 30.6483 29.6615 30.146 29.1961 29.6581C29.0052 29.4587 28.8055 29.2711 28.5669 29.1228C28.0896 28.8262 27.6753 28.917 27.4025 29.3935C27.1247 29.8781 27.0617 30.4148 27.0344 30.9549C26.997 31.7429 26.7481 31.9501 25.9211 31.9862C24.1537 32.066 22.4763 31.81 20.9181 30.9566C19.5443 30.2043 18.4789 29.1422 17.5517 27.9398C15.7463 25.5984 14.3638 23.0257 13.1212 20.3808C12.8415 19.785 13.0461 19.4651 13.733 19.4538C14.8736 19.4326 16.014 19.4341 17.156 19.4523C17.6196 19.4587 17.9265 19.7132 18.1055 20.1324C18.7226 21.5848 19.4777 22.9666 20.4255 24.2475C20.6779 24.5885 20.9353 24.9295 21.3018 25.1695C21.7073 25.4352 22.016 25.3472 22.2068 24.9148C22.3278 24.6407 22.3808 24.3454 22.4081 24.0518C22.4984 23.0417 22.5104 22.0334 22.3519 21.0268C22.2546 20.3986 21.8849 19.992 21.23 19.8731C20.8958 19.8125 20.9456 19.6935 21.1074 19.5109C21.3884 19.196 21.6527 19 22.1796 19H26.1311C26.7532 19.1175 26.8913 19.385 26.9765 19.9841L26.9799 24.1854C26.9731 24.4173 27.1009 25.1056 27.5374 25.2591C27.8867 25.3684 28.117 25.1009 28.3265 24.8889C29.2726 23.9278 29.9479 22.7919 30.5511 21.6158C30.8188 21.0986 31.049 20.5615 31.2721 20.0249C31.4373 19.6267 31.6967 19.4307 32.1653 19.4394L35.9684 19.4427C36.0811 19.4427 36.1952 19.4443 36.3044 19.4621C36.9453 19.5667 37.1209 19.8305 36.923 20.4295C36.6111 21.3693 36.0043 22.1524 35.411 22.9392C34.7768 23.7791 34.0985 24.5904 33.4696 25.4353C32.8917 26.2069 32.9376 26.5958 33.6554 27.266Z" fill="white"/>
</svg>
