<svg width="35" height="35" viewBox="0 0 35 35" fill="none" xmlns="http://www.w3.org/2000/svg">
<path d="M16.9853 32.9412C25.2159 32.9412 31.9118 26.2453 31.9118 18.0147C31.9118 9.78416 25.2159 3.08826 16.9853 3.08826C8.75474 3.08826 2.05884 9.78416 2.05884 18.0147C2.05884 26.2453 8.75474 32.9412 16.9853 32.9412ZM16.9853 30.5351C14.1156 30.5351 11.4701 29.5621 9.35615 27.9322C10.295 25.8215 12.4154 24.4017 14.7616 24.4017H19.1668C21.525 24.4017 23.6539 25.8295 24.5912 27.9507C22.4812 29.5697 19.8445 30.5351 16.9853 30.5351ZM13.0779 16.3744C13.0779 14.2198 14.8307 12.467 16.9853 12.467C19.1399 12.467 20.8927 14.2198 20.8927 16.3744C20.8927 18.529 19.1399 20.2822 16.9853 20.2822C14.8307 20.2822 13.0779 18.5294 13.0779 16.3744ZM16.9853 5.49431C23.8893 5.49431 29.5057 11.1107 29.5057 18.0147C29.5057 21.1584 28.3382 24.0329 26.4179 26.234C25.06 23.8481 22.5736 22.2339 19.7927 22.0213C21.8673 20.9856 23.2987 18.8467 23.2987 16.3744C23.2987 12.8929 20.4664 10.061 16.9853 10.061C13.5042 10.061 10.6719 12.8933 10.6719 16.3744C10.6719 18.8451 12.1021 20.9832 14.1747 22.0197C11.3918 22.2198 8.89776 23.8276 7.53343 26.2116C5.62433 24.0132 4.46489 21.1479 4.46489 18.0147C4.46489 11.1107 10.0813 5.49431 16.9853 5.49431Z" fill="#FF6847"/>
</svg>
